<svg width="32" height="32" viewBox="0 0 32 32" fill="none" xmlns="http://www.w3.org/2000/svg">
<rect width="32" height="32" rx="8" fill="#CDCDCD"/>
<path d="M20.744 10.1214C20.562 10.1578 20.338 10.253 20.1895 10.351C20.0999 10.4126 19.0077 11.5999 16.9857 13.846C15.2972 15.7166 13.8829 17.2849 13.8409 17.3269L13.7653 17.4081L12.788 16.5624C11.693 15.6186 11.5558 15.5262 11.1497 15.4674C10.7213 15.4058 10.2367 15.5598 9.93434 15.8538C9.321 16.4448 9.1054 16.8676 9.1446 17.4053C9.1754 17.8141 9.3294 18.0999 9.71314 18.4667C10.5673 19.2816 13.1409 21.606 13.2893 21.6956C13.5413 21.8496 13.7206 21.8972 14.051 21.8972C14.2694 21.8972 14.373 21.8804 14.5214 21.83C14.9274 21.6928 14.7874 21.8468 18.8677 17.1001C21.4442 14.1009 22.6567 12.6754 22.7043 12.5718C22.9143 12.1462 22.9115 11.6085 22.6987 11.2025C22.6091 11.0317 22.161 10.5779 21.8978 10.3903C21.6514 10.2139 21.3712 10.1187 21.08 10.1047C20.9568 10.099 20.8056 10.1074 20.744 10.1214Z" fill="#356D10"/>
</svg>
