<svg width="105" height="72" viewBox="0 0 105 72" fill="none" xmlns="http://www.w3.org/2000/svg">
<g clip-path="url(#clip0_468_764)">
<mask id="mask0_468_764" style="mask-type:luminance" maskUnits="userSpaceOnUse" x="0" y="0" width="105" height="72">
<path d="M104.922 0H0.982422V72H104.922V0Z" fill="white"/>
</mask>
<g mask="url(#mask0_468_764)">
<path d="M28.8533 62.421H13.1366V9.57894H28.8533V0H0.982422V72H28.8533V62.421Z" fill="#356D10"/>
<path d="M77.0522 0V9.57894H92.7689V62.421H77.0522V72H104.923V0H77.0522Z" fill="#356D10"/>
<path d="M22.2537 23.8942C25.7114 23.8942 25.7114 28.631 22.2537 28.631H19.1104V21.3679H24.3492V23.0521H20.8916V23.8942H22.2537ZM20.8916 25.5784V27.0521H22.2537C23.3014 27.0521 23.3014 25.5784 22.2537 25.5784H20.8916Z" fill="#1B1C20"/>
<path d="M30.5313 23.0521H27.912V23.9995H30.3218V25.6837H27.912V26.9469H30.6361V28.631H26.0259V21.3679H30.5313V23.0521Z" fill="#1B1C20"/>
<path d="M31.7872 23.1577C31.6824 21.7893 32.835 21.1577 34.0923 21.1577C35.664 21.1577 36.5022 22.2104 36.5022 23.263C36.5022 23.7893 36.2927 24.3157 35.8735 24.6314C36.607 25.0525 36.9213 25.5788 36.9213 26.4209C36.9213 27.6841 35.9783 28.7367 34.0923 28.7367C32.5206 28.7367 31.5776 27.8946 31.5776 26.2103H33.2541C33.2541 26.7367 33.6732 27.1577 34.1971 27.1577C35.4545 27.1577 35.4545 25.4735 34.1971 25.4735H33.6732V23.9998H34.1971C35.1401 23.9998 35.1401 22.7366 34.1971 22.7366C33.778 22.7366 33.5684 22.842 33.5684 23.1577H31.7872Z" fill="#1B1C20"/>
<path d="M37.5483 24.9477C37.5483 19.895 44.9875 19.895 44.9875 24.9477C44.9875 30.0003 37.5483 30.0003 37.5483 24.9477ZM43.1016 24.9477C43.1016 22.3161 39.4343 22.3161 39.4343 24.9477C39.4343 27.6846 43.1016 27.6846 43.1016 24.9477Z" fill="#1B1C20"/>
<path d="M52.2197 28.631H50.3338V23.0521H48.1334V28.631H46.1426V21.3679H52.2197V28.631Z" fill="#1B1C20"/>
<path d="M54.7344 28.6314H52.9531V28.3156L56.2012 21.2629H57.0394L60.2875 28.3156V28.6314H58.5064L56.6204 24.3155L54.7344 28.6314Z" fill="#1B1C20"/>
<path d="M65.7373 27.6846H62.9083L62.4892 28.6319H60.708V28.3162L63.9561 21.1582H64.7943L68.0424 28.3162V28.6319H66.2612L65.7373 27.6846ZM64.2705 24.2109L63.4323 26.1056H65.1087L64.2705 24.2109Z" fill="#1B1C20"/>
<path d="M67.4087 23.0521V21.3679H72.8571V23.0521H71.0758V28.631H69.1899V23.0521H67.4087Z" fill="#1B1C20"/>
<path d="M79.7763 28.631H77.7855V25.6837H75.5852V28.631H73.6992V21.3679H75.5852V23.9995H77.7855V21.3679H79.7763V28.631Z" fill="#1B1C20"/>
<path d="M85.5391 27.6846H82.7101L82.291 28.6319H80.5098V28.3162L83.7579 21.1582H84.5961L87.8442 28.3162V28.6319H86.063L85.5391 27.6846ZM84.177 24.2109L83.3387 26.1056H85.0152L84.177 24.2109Z" fill="#1B1C20"/>
<path d="M25.0827 39.3686H23.1967V33.7896H20.9964V39.3686H19.1104V32.1055H25.0827V39.3686Z" fill="#1B1C20"/>
<path d="M26.7554 39.3686V32.1055H29.8987C33.3563 32.1055 33.3563 37.5791 29.8987 37.5791H28.5366V39.4738H26.7554V39.3686ZM29.8987 33.7896C29.4795 33.7896 28.9557 33.7896 28.5366 33.7896V35.8949H29.8987C30.9465 35.8949 30.9465 33.7896 29.8987 33.7896Z" fill="#1B1C20"/>
<path d="M37.3408 38.5268H34.5119L34.0927 39.4741H32.3115V39.1583L35.5596 32.0005H36.3978L39.6459 39.1583V39.4741H37.8646L37.3408 38.5268ZM35.8739 34.9478L35.0357 36.8426H36.7121L35.8739 34.9478Z" fill="#1B1C20"/>
<path d="M45.0962 35.5792C45.7248 35.8949 45.9344 36.4212 45.9344 37.0528C45.9344 38.316 45.201 39.3686 43.6293 39.3686H40.2764V32.1055H43.4197C44.677 32.1055 45.7248 33.0528 45.7248 34.316C45.7248 34.8422 45.5152 35.3686 45.0962 35.5792ZM42.1623 33.7896V34.9476H43.3149C44.0484 34.9476 44.0484 33.7896 43.3149 33.7896H42.1623ZM42.1623 36.5265V37.7897H43.6293C44.3627 37.7897 44.3627 36.5265 43.6293 36.5265H42.1623Z" fill="#1B1C20"/>
<path d="M46.7671 35.7899C46.7671 30.7373 54.2063 30.7373 54.2063 35.7899C54.2063 40.8425 46.7671 40.8425 46.7671 35.7899ZM52.3203 35.7899C52.3203 33.1583 48.6531 33.1583 48.6531 35.7899C48.6531 38.4215 52.3203 38.4215 52.3203 35.7899Z" fill="#1B1C20"/>
<path d="M60.181 35.5792C60.8098 35.8949 61.0193 36.4212 61.0193 37.0528C61.0193 38.316 60.2858 39.3686 58.7142 39.3686H55.3613V32.1055H58.5046C59.762 32.1055 60.8098 33.0528 60.8098 34.316C60.8098 34.8422 60.4954 35.3686 60.181 35.5792ZM57.1425 33.7896V34.9476H58.2951C59.0285 34.9476 59.0285 33.7896 58.2951 33.7896H57.1425ZM57.1425 36.5265V37.7897H58.6094C59.3428 37.7897 59.3428 36.5265 58.6094 36.5265H57.1425Z" fill="#1B1C20"/>
<path d="M66.4669 38.5268H63.6378L63.2188 39.4741H61.4375V39.1583L64.6856 32.0005H65.5239L68.772 39.1583V39.4741H66.9907L66.4669 38.5268ZM65 34.9478L64.1618 36.8426H65.8382L65 34.9478Z" fill="#1B1C20"/>
<path d="M19.7377 51.0523H18.166V48.6313H18.8995L21.4141 42.8418H22.2523L24.8718 48.6313H25.6052V51.0523H24.0336V50.2103H19.7377V51.0523ZM20.7855 48.5261H22.881L21.8333 45.8945L20.7855 48.5261Z" fill="#1B1C20"/>
<path d="M25.8159 46.5263C25.8159 41.4737 33.2551 41.4737 33.2551 46.5263C33.2551 51.5789 25.8159 51.5789 25.8159 46.5263ZM31.369 46.5263C31.369 43.8947 27.7019 43.8947 27.7019 46.5263C27.7019 49.1579 31.369 49.1579 31.369 46.5263Z" fill="#1B1C20"/>
<path d="M40.4826 50.211H38.5967V44.6319H36.3963V50.211H34.5103V42.9478H40.4826V50.211Z" fill="#1B1C20"/>
<path d="M41.7407 46.5263C41.7407 41.4737 49.1799 41.4737 49.1799 46.5263C49.1799 51.5789 41.7407 51.5789 41.7407 46.5263ZM47.294 46.5263C47.294 43.8947 43.6267 43.8947 43.6267 46.5263C43.6267 49.1579 47.294 49.1579 47.294 46.5263Z" fill="#1B1C20"/>
<path d="M56.7259 42.843H57.3545V50.2115H55.4686V46.9483L54.0017 48.5273H53.7922L52.2204 46.9483V50.2115H50.3345V42.843H50.9631L53.8969 46.001L56.7259 42.843Z" fill="#1B1C20"/>
<path d="M58.6094 46.5263C58.6094 41.4737 66.0486 41.4737 66.0486 46.5263C66.0486 51.5789 58.6094 51.5789 58.6094 46.5263ZM64.1626 46.5263C64.1626 43.8947 60.4953 43.8947 60.4953 46.5263C60.4953 49.1579 64.1626 49.1579 64.1626 46.5263Z" fill="#1B1C20"/>
<path d="M69.0896 50.211H67.2036V42.9478H71.7091V44.5267H69.0896V50.211Z" fill="#1B1C20"/>
<path d="M76.1056 49.2632H73.2765L72.8575 50.2105H71.0762V49.8948L74.3243 42.7368H75.1625L78.4106 49.8948V50.2105H76.6294L76.1056 49.2632ZM74.7434 45.7895L73.9052 47.6843H75.5816L74.7434 45.7895Z" fill="#1B1C20"/>
</g>
</g>
<defs>
<clipPath id="clip0_468_764">
<rect width="105" height="72" fill="white"/>
</clipPath>
</defs>
</svg>
