<svg width="12" height="12" viewBox="0 0 12 12" fill="none" xmlns="http://www.w3.org/2000/svg">
<path d="M3.52983 4.93197C3.8996 5.66322 4.32577 6.36503 4.87908 7.00499C5.43418 7.64888 6.12448 8.23486 7.01801 8.73545C7.08426 8.77079 7.14694 8.77079 7.20334 8.74625C7.2884 8.71091 7.37524 8.63337 7.4603 8.54012C7.52655 8.46749 7.60892 8.35167 7.69488 8.22505C8.03868 7.72937 8.46396 7.11394 9.06472 7.42215C9.07815 7.42902 9.088 7.43687 9.10143 7.44276L11.1052 8.706C11.1114 8.70993 11.1186 8.7168 11.124 8.72073C11.3881 8.91998 11.4973 9.2272 11.5 9.57565C11.5 9.92999 11.3809 10.3285 11.2063 10.6652C10.9753 11.1098 10.6351 11.4043 10.243 11.5986C9.86962 11.7871 9.45419 11.8882 9.05487 11.9529C8.42815 12.054 7.84081 11.9893 7.24005 11.7871C6.65272 11.5878 6.06091 11.259 5.41449 10.8212L5.36703 10.7879C5.07068 10.5847 4.75016 10.3678 4.4359 10.1116C3.2863 9.15948 2.11432 7.78434 1.35061 6.2708C0.710457 5.00068 0.361281 3.62947 0.551985 2.32303C0.657633 1.60651 0.937869 0.954761 1.42672 0.524845C1.85289 0.147932 2.42679 -0.0581915 3.16991 0.0144426C3.25497 0.0213134 3.33107 0.0752983 3.37136 0.155785L4.65615 2.53701C4.84417 2.80399 4.86744 3.069 4.76448 3.33402C4.67943 3.55094 4.50752 3.75118 4.27295 3.93767C4.20401 4.00245 4.12164 4.06821 4.03479 4.13692C3.74739 4.36562 3.4206 4.62966 3.53252 4.93983L3.52983 4.93197Z" fill="#356D10"/>
</svg>
