<svg width="24" height="24" viewBox="0 0 24 24" fill="none" xmlns="http://www.w3.org/2000/svg">
<g clip-path="url(#clip0_468_1157)">
<mask id="mask0_468_1157" style="mask-type:luminance" maskUnits="userSpaceOnUse" x="0" y="0" width="24" height="24">
<path d="M24 0H0V24H24V0Z" fill="white"/>
</mask>
<g mask="url(#mask0_468_1157)">
<path d="M17.372 0H6.62803C2.96629 0 0 2.96629 0 6.62803V17.3862C0 21.0338 2.96629 24.0142 6.62803 24.0142H17.3862C21.0338 24.0142 24.0142 21.0478 24.0142 17.3862V6.62803C24 2.96629 21.0196 0 17.372 0ZM21.871 17.372C21.871 19.8558 19.8558 21.871 17.372 21.871H6.62803C4.1443 21.871 2.12891 19.8558 2.12891 17.372V6.62803C2.12891 4.1443 4.1443 2.12891 6.62803 2.12891H17.3862C19.87 2.12891 21.8852 4.1443 21.8852 6.62803L21.871 17.372Z" fill="#356D10"/>
<path d="M11.9937 5.81909C8.58743 5.81909 5.81982 8.58668 5.81982 11.9929C5.81982 15.3992 8.58743 18.181 12.0079 18.181C15.4284 18.181 18.1959 15.4134 18.1959 11.9929C18.1817 8.58668 15.4142 5.81909 11.9937 5.81909ZM11.9937 16.0521C9.76542 16.0521 7.93456 14.2354 7.93456 11.9929C7.94875 9.76467 9.76542 7.948 11.9937 7.948C14.222 7.948 16.0528 9.76467 16.0528 12.0071C16.0528 14.2354 14.2361 16.0521 11.9937 16.0521Z" fill="#356D10"/>
<path d="M18.4362 4.0166C18.0246 4.0166 17.6272 4.18691 17.3292 4.47077C17.0311 4.75462 16.875 5.16622 16.875 5.5778C16.875 5.9894 17.0453 6.38679 17.3292 6.68485C17.613 6.96869 18.0246 7.13902 18.4362 7.13902C18.8478 7.13902 19.2452 6.96869 19.5432 6.68485C19.8414 6.40098 19.9974 5.9894 19.9974 5.5778C19.9974 5.16622 19.8271 4.76882 19.5432 4.47077C19.2595 4.17271 18.8478 4.0166 18.4362 4.0166Z" fill="#356D10"/>
</g>
</g>
<defs>
<clipPath id="clip0_468_1157">
<rect width="24" height="24" fill="white"/>
</clipPath>
</defs>
</svg>
