<svg width="29" height="30" viewBox="0 0 29 30" fill="none" xmlns="http://www.w3.org/2000/svg">
<path d="M2.48038 7C1.38665 7 0.5 6.11335 0.5 5.01962C0.5 4.10938 1.12048 3.31635 2.00399 3.09739L14.0208 0.11925C14.3368 0.0409349 14.6672 0.0409461 14.9832 0.119282L26.9961 3.09731C27.8796 3.31632 28.5 4.10934 28.5 5.01956C28.5 6.11333 27.6133 7 26.5196 7H2.48038Z" fill="#356D10"/>
<path d="M2 30H27C27.8284 30 28.5 29.3284 28.5 28.5C28.5 27.6716 27.8284 27 27 27H2C1.17157 27 0.500002 27.6716 0.500002 28.5C0.500002 29.3284 1.17157 30 2 30Z" fill="#356D10"/>
<path d="M2 11L27 11C27.8284 11 28.5 10.3284 28.5 9.5C28.5 8.67157 27.8284 8 27 8L2 8C1.17157 8 0.500002 8.67157 0.500002 9.5C0.500002 10.3284 1.17157 11 2 11Z" fill="#356D10"/>
<path d="M5.5 23.4935V14.4935C5.5 13.6651 4.82843 12.9935 4 12.9935C3.17157 12.9935 2.5 13.6651 2.5 14.4935V23.4935C2.5 24.322 3.17157 24.9935 4 24.9935C4.82843 24.9935 5.5 24.322 5.5 23.4935Z" fill="#356D10"/>
<path d="M9.83203 23.4935V14.4935C9.83203 13.6651 9.16046 12.9935 8.33203 12.9935C7.5036 12.9935 6.83203 13.6651 6.83203 14.4935V23.4935C6.83203 24.322 7.5036 24.9935 8.33203 24.9935C9.16046 24.9935 9.83203 24.322 9.83203 23.4935Z" fill="#356D10"/>
<path d="M22.3984 23.4935V14.4935C22.3984 13.6651 21.7269 12.9935 20.8984 12.9935C20.07 12.9935 19.3984 13.6651 19.3984 14.4935V23.4935C19.3984 24.322 20.07 24.9935 20.8984 24.9935C21.7269 24.9935 22.3984 24.322 22.3984 23.4935Z" fill="#356D10"/>
<path d="M26.7305 23.4935V14.4935C26.7305 13.6651 26.0589 12.9935 25.2305 12.9935C24.402 12.9935 23.7305 13.6651 23.7305 14.4935V23.4935C23.7305 24.322 24.402 24.9935 25.2305 24.9935C26.0589 24.9935 26.7305 24.322 26.7305 23.4935Z" fill="#356D10"/>
<path d="M18.211 18.4401H10.7891V17.3523H18.211V18.4401ZM18.211 20.4973H10.7891V19.4095H18.211V20.4973ZM14.4922 24.192C13.6756 24.2359 12.8661 24.0218 12.1836 23.5813C11.9042 23.3787 11.6806 23.1116 11.5326 22.8038C11.3847 22.4961 11.3171 22.1574 11.3359 21.8179C11.3384 21.4112 11.4605 21.0138 11.6875 20.6729C11.8052 20.5 11.9534 20.3488 12.125 20.2263L13.418 20.3866C13.1827 20.578 12.9865 20.8111 12.8399 21.0736C12.7261 21.3018 12.6686 21.5527 12.6719 21.8065C12.666 21.9847 12.7057 22.1615 12.7876 22.3208C12.8695 22.4801 12.9908 22.6169 13.1406 22.7187C13.5443 22.9655 14.0169 23.0829 14.4922 23.0546C14.9652 23.0718 15.4332 22.9551 15.8399 22.7187C16.0195 22.5999 16.1634 22.4365 16.2567 22.2453C16.3501 22.0541 16.3896 21.842 16.3711 21.6309H17.7266C17.7533 22.1374 17.6167 22.6394 17.336 23.066C17.052 23.4511 16.6559 23.7437 16.1993 23.9057C15.6536 24.1046 15.0746 24.2017 14.4922 24.192ZM14.5313 14.8828C14.0458 14.8408 13.563 14.9876 13.1875 15.2912C13.0472 15.4337 12.9382 15.6026 12.867 15.7877C12.7958 15.9727 12.764 16.17 12.7735 16.3675H11.418C11.4155 15.9304 11.5185 15.4989 11.7188 15.108C11.9397 14.6999 12.2851 14.3691 12.7071 14.1614C13.2731 13.8876 13.9002 13.7564 14.5313 13.7797C15.0775 13.7662 15.6213 13.8556 16.1329 14.0431C16.5434 14.2 16.8941 14.4773 17.1368 14.837C17.3795 15.2259 17.5003 15.6757 17.4844 16.1309C17.4832 16.3242 17.457 16.5166 17.4063 16.7034C17.3553 16.8954 17.2764 17.0792 17.1719 17.2492C17.0594 17.43 16.9183 17.5923 16.7539 17.7301L15.5821 17.3942C15.7407 17.1944 15.8868 16.9854 16.0196 16.7683C16.1421 16.5687 16.2082 16.3408 16.211 16.108C16.2172 15.9357 16.182 15.7645 16.108 15.608C16.0341 15.4515 15.9235 15.3142 15.7852 15.2072C15.414 14.9601 14.9671 14.8455 14.5196 14.8828H14.5313Z" fill="#356D10"/>
</svg>
