<svg width="44" height="31" viewBox="0 0 44 31" fill="none" xmlns="http://www.w3.org/2000/svg">
<g clip-path="url(#clip0_468_1076)">
<mask id="mask0_468_1076" style="mask-type:luminance" maskUnits="userSpaceOnUse" x="0" y="0" width="44" height="31">
<path d="M43.9672 0H0.411621V31H43.9672V0Z" fill="white"/>
</mask>
<g mask="url(#mask0_468_1076)">
<path d="M12.0909 26.8757H5.50481V4.12427H12.0909V0H0.411621V31H12.0909V26.8757Z" fill="#356D10"/>
<path d="M32.2886 0V4.12427H38.8746V26.8757H32.2886V31H43.9678V0H32.2886Z" fill="#356D10"/>
<path d="M9.3255 10.2878C10.7744 10.2878 10.7744 12.3272 9.3255 12.3272H8.0083V9.20007H10.2036V9.9252H8.75474V10.2878H9.3255ZM8.75474 11.0129V11.6474H9.3255C9.76457 11.6474 9.76457 11.0129 9.3255 11.0129H8.75474Z" fill="#1B1C20"/>
<path d="M12.7938 9.9252H11.6961V10.3331H12.7059V11.0582H11.6961V11.6021H12.8377V12.3272H10.9058V9.20007H12.7938V9.9252Z" fill="#1B1C20"/>
<path d="M13.3202 9.97073C13.2763 9.38155 13.7593 9.10962 14.2862 9.10962C14.9448 9.10962 15.2961 9.56286 15.2961 10.016C15.2961 10.2427 15.2082 10.4693 15.0326 10.6052C15.34 10.7865 15.4717 11.0132 15.4717 11.3757C15.4717 11.9196 15.0765 12.3728 14.2862 12.3728C13.6276 12.3728 13.2324 12.0102 13.2324 11.285H13.935C13.935 11.5117 14.1106 11.693 14.3301 11.693C14.857 11.693 14.857 10.9678 14.3301 10.9678H14.1106V10.3333H14.3301C14.7253 10.3333 14.7253 9.78943 14.3301 9.78943C14.1545 9.78943 14.0666 9.83479 14.0666 9.97073H13.3202Z" fill="#1B1C20"/>
<path d="M15.7344 10.7413C15.7344 8.56587 18.8518 8.56587 18.8518 10.7413C18.8518 12.9168 15.7344 12.9168 15.7344 10.7413ZM18.0614 10.7413C18.0614 9.60829 16.5247 9.60829 16.5247 10.7413C16.5247 11.9197 18.0614 11.9197 18.0614 10.7413Z" fill="#1B1C20"/>
<path d="M21.8826 12.3272H21.0922V9.9252H20.1702V12.3272H19.3359V9.20007H21.8826V12.3272Z" fill="#1B1C20"/>
<path d="M22.9364 12.3274H22.1899V12.1914L23.5511 9.15491H23.9023L25.2634 12.1914V12.3274H24.517L23.7267 10.4692L22.9364 12.3274Z" fill="#1B1C20"/>
<path d="M27.547 11.9197H26.3615L26.1859 12.3276H25.4395V12.1916L26.8006 9.10974H27.1518L28.5129 12.1916V12.3276H27.7665L27.547 11.9197ZM26.9323 10.4241L26.5811 11.2399H27.2835L26.9323 10.4241Z" fill="#1B1C20"/>
<path d="M28.2476 9.9252V9.20007H30.5307V9.9252H29.7843V12.3272H28.994V9.9252H28.2476Z" fill="#1B1C20"/>
<path d="M33.4299 12.3272H32.5957V11.0582H31.6736V12.3272H30.8833V9.20007H31.6736V10.3331H32.5957V9.20007H33.4299V12.3272Z" fill="#1B1C20"/>
<path d="M35.8448 11.9197H34.6593L34.4837 12.3276H33.7373V12.1916L35.0984 9.10974H35.4497L36.8108 12.1916V12.3276H36.0644L35.8448 11.9197ZM35.2741 10.4241L34.9228 11.2399H35.6253L35.2741 10.4241Z" fill="#1B1C20"/>
<path d="M10.511 16.9503H9.72066V14.5482H8.79866V16.9503H8.0083V13.8231H10.511V16.9503Z" fill="#1B1C20"/>
<path d="M11.2119 16.9503V13.8231H12.5291C13.978 13.8231 13.978 16.1798 12.5291 16.1798H11.9583V16.9956H11.2119V16.9503ZM12.5291 14.5482C12.3535 14.5482 12.134 14.5482 11.9583 14.5482V15.4547H12.5291C12.9682 15.4547 12.9682 14.5482 12.5291 14.5482Z" fill="#1B1C20"/>
<path d="M15.6476 16.5879H14.4621L14.2864 16.9958H13.54V16.8598L14.9012 13.778H15.2524L16.6135 16.8598V16.9958H15.8671L15.6476 16.5879ZM15.0328 15.0469L14.6816 15.8627H15.3841L15.0328 15.0469Z" fill="#1B1C20"/>
<path d="M18.8972 15.3187C19.1606 15.4547 19.2484 15.6813 19.2484 15.9532C19.2484 16.4971 18.9411 16.9503 18.2825 16.9503H16.8774V13.8231H18.1946C18.7215 13.8231 19.1606 14.231 19.1606 14.7749C19.1606 15.0014 19.0728 15.2281 18.8972 15.3187ZM17.6678 14.5482V15.0468H18.1507C18.4581 15.0468 18.4581 14.5482 18.1507 14.5482H17.6678ZM17.6678 15.7266V16.2705H18.2825C18.5898 16.2705 18.5898 15.7266 18.2825 15.7266H17.6678Z" fill="#1B1C20"/>
<path d="M19.5977 15.4095C19.5977 13.2341 22.715 13.2341 22.715 15.4095C22.715 17.5849 19.5977 17.5849 19.5977 15.4095ZM21.9247 15.4095C21.9247 14.2765 20.388 14.2765 20.388 15.4095C20.388 16.5426 21.9247 16.5426 21.9247 15.4095Z" fill="#1B1C20"/>
<path d="M25.2189 15.3187C25.4824 15.4547 25.5702 15.6813 25.5702 15.9532C25.5702 16.4971 25.2628 16.9503 24.6042 16.9503H23.1992V13.8231H24.5164C25.0433 13.8231 25.4824 14.231 25.4824 14.7749C25.4824 15.0014 25.3506 15.2281 25.2189 15.3187ZM23.9456 14.5482V15.0468H24.4286C24.7359 15.0468 24.7359 14.5482 24.4286 14.5482H23.9456ZM23.9456 15.7266V16.2705H24.5603C24.8677 16.2705 24.8677 15.7266 24.5603 15.7266H23.9456Z" fill="#1B1C20"/>
<path d="M27.8527 16.5879H26.6672L26.4916 16.9958H25.7451V16.8598L27.1062 13.778H27.4575L28.8186 16.8598V16.9958H28.0722L27.8527 16.5879ZM27.238 15.0469L26.8867 15.8627H27.5892L27.238 15.0469Z" fill="#1B1C20"/>
<path d="M8.27093 21.9809H7.6123V20.9385H7.91968L8.97342 18.4458H9.32466L10.4223 20.9385H10.7297V21.9809H10.0711V21.6183H8.27093V21.9809ZM8.70999 20.8932H9.58813L9.14906 19.7602L8.70999 20.8932Z" fill="#1B1C20"/>
<path d="M10.8179 20.0322C10.8179 17.8568 13.9352 17.8568 13.9352 20.0322C13.9352 22.2076 10.8179 22.2076 10.8179 20.0322ZM13.1449 20.0322C13.1449 18.8992 11.6082 18.8992 11.6082 20.0322C11.6082 21.1653 13.1449 21.1653 13.1449 20.0322Z" fill="#1B1C20"/>
<path d="M16.9641 21.6187H16.1738V19.2166H15.2518V21.6187H14.4614V18.4915H16.9641V21.6187Z" fill="#1B1C20"/>
<path d="M17.4912 20.0322C17.4912 17.8568 20.6086 17.8568 20.6086 20.0322C20.6086 22.2076 17.4912 22.2076 17.4912 20.0322ZM19.8183 20.0322C19.8183 18.8992 18.2815 18.8992 18.2815 20.0322C18.2815 21.1653 19.8183 21.1653 19.8183 20.0322Z" fill="#1B1C20"/>
<path d="M23.7711 18.4463H24.0345V21.6188H23.2442V20.2138L22.6295 20.8937H22.5417L21.8831 20.2138V21.6188H21.0928V18.4463H21.3562L22.5856 19.806L23.7711 18.4463Z" fill="#1B1C20"/>
<path d="M24.5601 20.0322C24.5601 17.8568 27.6774 17.8568 27.6774 20.0322C27.6774 22.2076 24.5601 22.2076 24.5601 20.0322ZM26.8871 20.0322C26.8871 18.8992 25.3504 18.8992 25.3504 20.0322C25.3504 21.1653 26.8871 21.1653 26.8871 20.0322Z" fill="#1B1C20"/>
<path d="M28.9519 21.6187H28.1616V18.4915H30.0496V19.1713H28.9519V21.6187Z" fill="#1B1C20"/>
<path d="M31.8917 21.2106H30.7062L30.5306 21.6185H29.7842V21.4825L31.1453 18.4006H31.4965L32.8576 21.4825V21.6185H32.1112L31.8917 21.2106ZM31.3209 19.715L30.9697 20.5308H31.6722L31.3209 19.715Z" fill="#1B1C20"/>
</g>
</g>
<defs>
<clipPath id="clip0_468_1076">
<rect width="44" height="31" fill="white"/>
</clipPath>
</defs>
</svg>
