<svg width="45" height="29" viewBox="0 0 45 29" fill="none" xmlns="http://www.w3.org/2000/svg">
<path d="M12.3417 28.997C8.98171 28.997 5.62014 28.997 2.25702 28.997C0.7537 28.997 0.467577 28.74 0.502756 27.3127C0.537936 25.8411 0.448815 24.3296 0.763082 22.9046C1.41038 19.9703 3.39683 18.0288 6.39174 17.0692C6.81803 16.9615 7.2719 17.0139 7.65819 17.2155C10.9181 19.0971 14.1335 19.0926 17.377 17.1822C17.7361 16.9997 18.155 16.9522 18.5497 17.0493C21.7298 17.9358 24.2065 20.8368 24.4339 23.9617C24.5207 25.1386 24.4996 26.3243 24.4926 27.5077C24.4926 28.7311 24.2111 28.9926 22.8907 28.997C19.3775 29.0037 15.8596 28.997 12.3417 28.997Z" fill="#356D10"/>
<path d="M28.5893 28.9988C27.4453 28.9986 26.5457 28.041 26.5804 26.8975C26.6619 24.2144 26.4941 21.6682 24.9936 19.4108C24.7265 19.0089 24.7211 18.4652 25.0758 18.1381C26.4606 16.8611 27.9092 16.7382 29.6328 17.682C32.0296 18.9933 34.4174 18.9243 36.7272 17.5083C37.7582 16.876 38.7513 16.8404 39.7779 17.3636C42.7035 18.8553 44.317 21.2286 44.4755 24.5258C44.529 25.5989 44.4755 26.6787 44.4933 27.7563C44.5045 28.5266 44.143 28.9874 43.3775 28.9897C38.4637 29.0033 33.5449 28.9999 28.5893 28.9988Z" fill="#356D10"/>
<path d="M32.5836 0.000495239C36.5108 0.0362372 38.75 2.38329 39.028 6.76525C39.0907 7.75173 39.0997 8.74774 39.2006 9.72945C39.3575 11.2807 39.9067 12.6341 41.1014 13.6325C41.7268 14.1543 41.5945 14.5475 40.8571 14.7452C40.4951 14.8406 40.1284 14.9146 39.7587 14.9668C37.8983 15.2266 36.0692 15.329 34.3477 16.4632C32.8235 17.4688 31.1221 16.9183 29.562 15.9867C28.8495 15.6139 28.0876 15.3591 27.3026 15.2313C26.2446 15.0073 25.1597 14.9382 24.0972 14.7309C23.4113 14.5975 23.3037 14.1257 23.8394 13.6611C25.3973 12.3029 25.8209 10.4753 25.8725 8.4618C25.8927 7.74696 25.9465 7.03213 26.0115 6.31729C26.3948 2.12595 28.6497 -0.0376295 32.5836 0.000495239ZM28.3852 5.46187C27.4169 7.1465 27.464 8.65005 27.5738 10.1417C27.7397 12.422 29.5688 14.6332 31.7161 15.2409C33.339 15.7007 35.3765 14.6309 36.6228 12.6627C37.8691 10.6945 37.8893 7.29185 36.6027 5.63819C36.4592 7.08216 35.5985 7.2442 34.5046 7.18224C33.1607 7.1048 31.8138 7.1048 30.4699 7.18224C29.4208 7.23466 28.6094 7.06549 28.3852 5.46187Z" fill="#356D10"/>
<path d="M12.7755 0.0188722C14.3972 0.0188722 16.0215 0.0550145 17.6433 0.00681882C17.8184 -0.0110641 17.9954 0.00631775 18.1635 0.0579003C18.3316 0.109483 18.4873 0.194188 18.6211 0.30688C18.7549 0.419572 18.8641 0.557897 18.942 0.713443C19.0199 0.868989 19.0649 1.03851 19.0743 1.21171C19.3017 2.86723 19.4338 4.54204 19.495 6.21202C19.5341 7.28678 19.3311 8.36637 19.3262 9.44354C19.3115 13.8848 15.9481 17.1958 11.6135 16.991C7.45511 16.7934 4.39254 13.0727 4.73989 8.74711C4.82795 7.64584 4.55643 6.52288 4.52219 5.40715C4.49039 4.33961 4.33628 3.18774 5.64007 2.60939C5.70912 2.5714 5.76908 2.51926 5.81592 2.45649C5.86276 2.39371 5.89539 2.32177 5.91159 2.24551C6.14153 0.423714 7.62389 0.242976 8.98639 0.103209C10.2364 -0.0245099 11.5108 0.0767047 12.7755 0.0767047V0.0188722ZM17.6873 10.205H17.3204C17.1166 9.7374 16.9529 9.25375 16.8311 8.75916C16.7529 8.29166 16.8654 7.79525 16.8507 7.31329C16.8067 5.79754 16.5645 5.60957 15.1066 5.98068C13.3087 6.43854 11.5181 6.60963 9.67864 6.16864C7.18114 5.57102 6.98789 5.75175 7.10775 8.28925C7.14177 8.44764 7.1492 8.61045 7.12977 8.77121C6.97077 9.25317 6.77508 9.73513 6.59406 10.205L6.26873 10.1207C6.52557 13.2414 8.85919 15.5042 11.863 15.5523C14.9305 15.5933 17.3204 13.41 17.6873 10.205Z" fill="#356D10"/>
</svg>
