<svg width="59" height="74" viewBox="0 0 59 74" fill="none" xmlns="http://www.w3.org/2000/svg">
<g clip-path="url(#clip0_468_806)">
<path d="M17.0457 29.6H15.1131C13.1253 29.6 11.1571 29.9884 9.3211 30.7431C7.48511 31.4978 5.81743 32.604 4.41358 33.9981C3.00972 35.3923 1.89727 37.0471 1.13992 38.8678C0.382579 40.6886 -0.0047744 42.6394 4.44134e-05 44.6087V59.0185C4.44134e-05 62.9894 1.59231 66.7977 4.42655 69.6056C7.26079 72.4135 11.1049 73.9909 15.1131 73.9909H17.0457C21.0539 73.9909 24.898 72.4135 27.7323 69.6056C30.5665 66.7977 32.1588 62.9894 32.1588 59.0185V44.6087C32.1636 42.6394 31.7762 40.6886 31.0189 38.8678C30.2615 37.0471 29.1491 35.3923 27.7452 33.9981C26.3414 32.604 24.6737 31.4978 22.8377 30.7431C21.0017 29.9884 19.0335 29.6 17.0457 29.6ZM16.8167 43.6468C16.1837 43.6504 15.5639 43.4677 15.0358 43.1219C14.5077 42.7762 14.0952 42.2828 13.8504 41.7045C13.6056 41.1261 13.5397 40.4888 13.661 39.8733C13.7822 39.2578 14.0852 38.6918 14.5316 38.2471C14.9779 37.8024 15.5474 37.499 16.168 37.3753C16.7886 37.2516 17.4323 37.3133 18.0174 37.5524C18.6026 37.7916 19.103 38.1974 19.455 38.7186C19.8071 39.2398 19.995 39.8528 19.995 40.4799C19.9963 40.8946 19.915 41.3055 19.7559 41.6891C19.5969 42.0726 19.3631 42.4214 19.0679 42.7155C18.7728 43.0096 18.4221 43.2432 18.0358 43.403C17.6496 43.5628 17.2353 43.6456 16.8167 43.6468Z" fill="#356D10"/>
<path d="M14.8108 41.1333C14.6772 41.0129 14.5688 40.8677 14.4919 40.7059C14.415 40.5441 14.371 40.3689 14.3625 40.1902C14.354 40.0115 14.3812 39.833 14.4423 39.6647C14.5035 39.4964 14.5976 39.3418 14.7192 39.2095C14.9657 38.9444 15.3078 38.7862 15.6713 38.7692C16.0347 38.7522 16.3903 38.8778 16.661 39.1188C16.7946 39.2391 16.9029 39.3843 16.9798 39.5461C17.0567 39.7079 17.1007 39.8832 17.1092 40.0618C17.1177 40.2405 17.0906 40.4191 17.0294 40.5873C16.9682 40.7556 16.8741 40.9103 16.7526 41.0425C16.6249 41.1848 16.4683 41.2987 16.2931 41.3769C16.1179 41.4551 15.928 41.4958 15.7359 41.4962C15.3929 41.4923 15.0635 41.363 14.8108 41.1333ZM11.5775 37.5852C11.4683 37.4414 11.389 37.2776 11.3441 37.1032C11.2993 36.9288 11.2898 36.7473 11.3162 36.5692C11.3426 36.3912 11.4044 36.2201 11.498 36.0658C11.5916 35.9116 11.7151 35.7772 11.8614 35.6706C12.1513 35.4556 12.5142 35.361 12.8733 35.4067C13.2324 35.4525 13.5594 35.635 13.7849 35.9156C13.8961 36.0572 13.9779 36.2192 14.0256 36.3922C14.0733 36.5653 14.0861 36.7459 14.0631 36.9239C14.0401 37.1018 13.9819 37.2735 13.8917 37.429C13.8015 37.5846 13.6812 37.7209 13.5376 37.8302C13.2995 38.0139 13.0059 38.113 12.7041 38.1115C12.4875 38.1194 12.2722 38.0758 12.0762 37.9842C11.8802 37.8926 11.7091 37.7558 11.5775 37.5852ZM8.94874 33.5745C8.78728 33.2561 8.75823 32.8878 8.86783 32.5485C8.97743 32.2092 9.21694 31.9259 9.53495 31.7596C9.85626 31.5997 10.2281 31.5709 10.5706 31.6795C10.9131 31.788 11.1989 32.0253 11.3668 32.3404C11.5236 32.6595 11.5501 33.0262 11.4409 33.3642C11.3317 33.7022 11.0952 33.9855 10.7806 34.1552C10.5823 34.2463 10.3671 34.2957 10.1486 34.3004C9.90117 34.2977 9.65906 34.2288 9.44786 34.101C9.23666 33.9732 9.06421 33.7913 8.94874 33.5745ZM7.28173 28.9285C7.25009 28.7545 7.25344 28.576 7.2916 28.4032C7.32976 28.2305 7.40197 28.0669 7.50409 27.9219C7.60621 27.7769 7.73623 27.6533 7.88669 27.5582C8.03715 27.4631 8.20509 27.3984 8.38086 27.3677C8.56026 27.328 8.74589 27.3244 8.92674 27.357C9.10759 27.3896 9.27999 27.4579 9.43372 27.5578C9.58746 27.6576 9.71941 27.787 9.82175 27.9383C9.9241 28.0896 9.99476 28.2596 10.0296 28.4385C10.0626 28.6149 10.0601 28.796 10.0222 28.9715C9.9843 29.1469 9.91177 29.3132 9.80877 29.4608C9.70577 29.6084 9.57433 29.7343 9.42202 29.8314C9.26971 29.9285 9.09953 29.9948 8.92127 30.0264C8.83908 30.0354 8.75615 30.0354 8.67396 30.0264C8.3477 30.0387 8.02782 29.9346 7.77237 29.7332C7.51693 29.5317 7.34285 29.2462 7.28173 28.9285ZM25.4815 26.7507C25.3122 26.6873 25.1573 26.5913 25.0256 26.4684C24.8938 26.3455 24.7879 26.1981 24.7139 26.0345C24.6398 25.8709 24.5991 25.6945 24.5941 25.5153C24.5891 25.3361 24.6198 25.1577 24.6846 24.9903C24.7489 24.8168 24.8484 24.6582 24.9769 24.5243C25.1055 24.3904 25.2603 24.284 25.432 24.2117C25.6037 24.1395 25.7885 24.1028 25.975 24.104C26.1615 24.1053 26.3458 24.1444 26.5165 24.219C26.6854 24.2813 26.84 24.3764 26.9713 24.4986C27.1027 24.6208 27.2081 24.7678 27.2814 24.9308C27.3548 25.0939 27.3946 25.2698 27.3985 25.4483C27.4024 25.6268 27.3703 25.8042 27.3042 25.9703C27.2091 26.2329 27.0354 26.4605 26.8063 26.6226C26.5771 26.7848 26.3035 26.8738 26.0219 26.8777C25.8341 26.8785 25.6489 26.835 25.4815 26.7507ZM8.43582 25.4984C8.26257 25.4476 8.10123 25.3632 7.96117 25.2501C7.82111 25.137 7.70511 24.9975 7.6199 24.8396C7.5347 24.6818 7.48198 24.5087 7.46481 24.3305C7.44764 24.1523 7.46635 23.9725 7.51987 23.8016C7.57111 23.6289 7.65663 23.4681 7.77141 23.3286C7.88619 23.1891 8.02793 23.0737 8.18831 22.9892C8.34869 22.9047 8.52449 22.8528 8.7054 22.8364C8.88631 22.8201 9.06869 22.8397 9.24185 22.8941C9.41509 22.945 9.57643 23.0294 9.71649 23.1425C9.85655 23.2556 9.97255 23.3951 10.0578 23.5529C10.143 23.7108 10.1957 23.8838 10.2129 24.062C10.23 24.2402 10.2113 24.42 10.1578 24.591C10.0647 24.8602 9.88765 25.0932 9.65223 25.2563C9.41682 25.4194 9.1352 25.5042 8.84799 25.4984C8.71148 25.5203 8.57232 25.5203 8.43582 25.4984ZM27.6248 22.7762C27.4963 22.6504 27.3943 22.5006 27.3246 22.3355C27.255 22.1704 27.2192 21.9933 27.2192 21.8143C27.2192 21.6354 27.255 21.4582 27.3246 21.2931C27.3943 21.128 27.4963 20.9782 27.6248 20.8524C27.7511 20.724 27.9021 20.622 28.0688 20.5523C28.2356 20.4826 28.4147 20.4467 28.5957 20.4467C28.7767 20.4467 28.9558 20.4826 29.1226 20.5523C29.2893 20.622 29.4403 20.724 29.5666 20.8524C29.8211 21.1073 29.9638 21.4513 29.9638 21.8098C29.9638 22.1683 29.8211 22.5123 29.5666 22.7671C29.3084 23.0225 28.9604 23.1688 28.5957 23.1754C28.414 23.1734 28.2345 23.1354 28.0677 23.0638C27.901 22.9921 27.7504 22.8881 27.6248 22.758V22.7762ZM10.2219 21.3787C9.96461 21.1235 9.8201 20.7776 9.8201 20.4169C9.8201 20.0562 9.96461 19.7102 10.2219 19.455C10.4709 19.1915 10.8154 19.0368 11.1795 19.0249C11.5437 19.013 11.8977 19.1448 12.1637 19.3915C12.4277 19.6422 12.5808 19.9863 12.5894 20.3485C12.5979 20.7108 12.4614 21.0616 12.2095 21.3243C12.081 21.4582 11.926 21.5643 11.7542 21.6361C11.5825 21.708 11.3976 21.7439 11.2111 21.7417C10.8558 21.7415 10.5144 21.6049 10.2585 21.3606L10.2219 21.3787ZM30.9863 19.7363C30.8813 19.5915 30.8066 19.4274 30.7663 19.2536C30.726 19.0798 30.7211 18.8998 30.7518 18.7241C30.7825 18.5484 30.8482 18.3806 30.9451 18.2303C31.0419 18.08 31.168 17.9504 31.316 17.8489C31.4624 17.7442 31.6283 17.6694 31.8041 17.6287C31.9799 17.588 32.1621 17.5822 32.3401 17.6118C32.5182 17.6413 32.6885 17.7055 32.8413 17.8008C32.9942 17.896 33.1264 18.0203 33.2304 18.1665C33.4398 18.4559 33.5256 18.8155 33.469 19.1672C33.4124 19.5189 33.218 19.8343 32.9281 20.0448C32.7018 20.2148 32.4243 20.3043 32.1404 20.2989C31.9207 20.2984 31.7044 20.2453 31.5098 20.1442C31.3153 20.0431 31.1483 19.8969 31.0229 19.7182L30.9863 19.7363ZM13.6933 18.2935C13.5282 17.9807 13.4923 17.6165 13.5932 17.2779C13.694 16.9393 13.9237 16.6527 14.2337 16.4787C14.5489 16.3167 14.9149 16.281 15.2559 16.379C15.5969 16.4769 15.8868 16.7011 16.0656 17.005C16.2307 17.3179 16.2666 17.682 16.1658 18.0207C16.0649 18.3593 15.8353 18.6458 15.5252 18.8198C15.3241 18.9328 15.0969 18.9922 14.8657 18.9922C14.6257 18.9874 14.3912 18.9203 14.1855 18.7977C13.9798 18.6752 13.8101 18.5013 13.6933 18.2935ZM34.8607 17.1411C34.7621 16.9905 34.6945 16.8221 34.6619 16.6456C34.6292 16.4691 34.6321 16.2879 34.6705 16.1124C34.7088 15.937 34.7817 15.7708 34.8851 15.6234C34.9885 15.4761 35.1203 15.3504 35.2729 15.2537C35.4253 15.157 35.5955 15.0914 35.7737 15.0605C35.9519 15.0296 36.1346 15.0341 36.311 15.0738C36.4874 15.1135 36.6541 15.1876 36.8014 15.2916C36.9487 15.3957 37.0736 15.5278 37.1689 15.6802C37.2671 15.8293 37.3343 15.9963 37.3667 16.1714C37.3991 16.3466 37.3961 16.5263 37.3577 16.7003C37.3194 16.8742 37.2465 17.0389 37.1433 17.1846C37.0401 17.3304 36.9087 17.4544 36.7567 17.5494C36.5367 17.6923 36.2778 17.7651 36.0148 17.7581C35.7805 17.7703 35.547 17.7224 35.3368 17.6191C35.1266 17.5158 34.9469 17.3605 34.8149 17.1683L34.8607 17.1411ZM17.7967 16.2337C17.7322 16.0657 17.7019 15.8868 17.7075 15.7072C17.7131 15.5275 17.7546 15.3508 17.8295 15.1871C17.9045 15.0235 18.0114 14.8761 18.1441 14.7536C18.2768 14.6311 18.4327 14.5358 18.6028 14.4733C18.9441 14.347 19.3221 14.3601 19.6536 14.5099C19.9851 14.6596 20.243 14.9337 20.3705 15.2718C20.498 15.61 20.4848 15.9844 20.3336 16.3128C20.1824 16.6413 19.9058 16.8968 19.5645 17.0231C19.4097 17.0816 19.2447 17.1094 19.0791 17.1048C18.8012 17.1193 18.5254 17.0498 18.2882 16.9056C18.0511 16.7614 17.8637 16.5492 17.7509 16.2972L17.7967 16.2337ZM22.1108 14.7001C21.9868 14.3596 22.0039 13.9842 22.1583 13.656C22.3128 13.3279 22.5921 13.0736 22.9352 12.9488C23.2766 12.8283 23.6523 12.8453 23.9812 12.9964C24.3101 13.1474 24.566 13.4203 24.6938 13.7564C24.7631 13.9312 24.7957 14.1181 24.7895 14.3057C24.7834 14.4933 24.7386 14.6778 24.658 14.8477C24.5774 15.0176 24.4627 15.1694 24.3208 15.2938C24.1789 15.4182 24.0128 15.5126 23.8328 15.5713C23.6793 15.6218 23.5183 15.6464 23.3565 15.6439C23.0769 15.6426 22.8042 15.5579 22.5738 15.4009C22.3435 15.244 22.1662 15.0219 22.065 14.7637L22.1108 14.7001ZM38.5978 14.4733C38.5204 14.3113 38.4761 14.1358 38.4674 13.9567C38.4587 13.7777 38.4857 13.5988 38.547 13.4302C38.6083 13.2615 38.7026 13.1066 38.8245 12.9741C38.9463 12.8417 39.0934 12.7344 39.2573 12.6585C39.4213 12.5821 39.599 12.5387 39.7801 12.5307C39.9612 12.5227 40.1421 12.5503 40.3124 12.6119C40.4827 12.6734 40.639 12.7678 40.7723 12.8895C40.9056 13.0111 41.0133 13.1578 41.0891 13.3209C41.2429 13.6484 41.2598 14.0229 41.1363 14.3627C41.0128 14.7026 40.7589 14.9804 40.4297 15.1357C40.2462 15.2096 40.0506 15.2496 39.8526 15.2537C39.5921 15.2681 39.3328 15.2083 39.1055 15.0813C38.8782 14.9542 38.6925 14.7653 38.5703 14.5368L38.5978 14.4733ZM42.9668 13.2664C42.9668 12.9054 43.1116 12.5592 43.3692 12.304C43.6269 12.0487 43.9763 11.9053 44.3407 11.9053C44.7051 11.9053 45.0546 12.0487 45.3122 12.304C45.5699 12.5592 45.7146 12.9054 45.7146 13.2664C45.7146 13.6274 45.5699 13.9736 45.3122 14.2289C45.0546 14.4841 44.7051 14.6276 44.3407 14.6276C43.9825 14.635 43.6354 14.5036 43.3736 14.2611C43.1118 14.0187 42.956 13.6846 42.9393 13.3299L42.9668 13.2664ZM47.5465 13.3209C47.5239 12.9603 47.6459 12.6054 47.8861 12.3335C48.1262 12.0616 48.4651 11.8946 48.8288 11.869C49.0093 11.8579 49.1903 11.8823 49.3612 11.9407C49.5322 11.9991 49.6899 12.0903 49.8252 12.2092C49.9605 12.328 50.0708 12.4722 50.1497 12.6334C50.2286 12.7946 50.2747 12.9696 50.2852 13.1485C50.3078 13.5081 50.1855 13.862 49.9451 14.1325C49.7047 14.4029 49.3659 14.5679 49.0029 14.5913H48.9204C48.5768 14.6002 48.2422 14.4813 47.9828 14.2579C47.7234 14.0344 47.5579 13.7228 47.519 13.3844L47.5465 13.3209ZM52.1262 12.849C52.0521 12.683 52.0121 12.504 52.0084 12.3225C52.0048 12.1409 52.0375 11.9605 52.1049 11.7917C52.1722 11.6228 52.2727 11.4689 52.4006 11.3388C52.5285 11.2088 52.6812 11.1052 52.8498 11.0342C53.0186 10.9613 53.2003 10.9225 53.3843 10.9201C53.5684 10.9177 53.7511 10.9518 53.9217 11.0202C54.0923 11.0887 54.2474 11.1902 54.3779 11.3188C54.5084 11.4474 54.6117 11.6005 54.6817 11.7692C54.7568 11.9356 54.7974 12.1153 54.8011 12.2976C54.8048 12.4798 54.7714 12.661 54.7031 12.8303C54.6348 12.9995 54.5328 13.1535 54.4032 13.283C54.2737 13.4124 54.1192 13.5148 53.949 13.584C53.7791 13.6477 53.5993 13.6815 53.4177 13.6838C53.1437 13.7026 52.8703 13.639 52.6334 13.5014C52.3964 13.3638 52.2069 13.1586 52.0896 12.9125L52.1262 12.849ZM26.3974 13.0759C26.295 12.929 26.223 12.7634 26.1855 12.5888C26.148 12.4141 26.1459 12.2339 26.1791 12.0584C26.2123 11.8829 26.2802 11.7157 26.379 11.5664C26.4778 11.4171 26.6055 11.2886 26.7546 11.1884C26.9033 11.0856 27.0711 11.013 27.2483 10.9751C27.4255 10.9372 27.6085 10.9346 27.7867 10.9676C27.9649 11.0005 28.1348 11.0683 28.2862 11.167C28.4377 11.2657 28.5678 11.3933 28.669 11.5423C28.7709 11.6898 28.8424 11.8558 28.8791 12.0308C28.9159 12.2058 28.9173 12.3863 28.8833 12.5618C28.8492 12.7373 28.7803 12.9044 28.6807 13.0534C28.581 13.2024 28.4525 13.3303 28.3026 13.4298C28.0793 13.59 27.8089 13.6729 27.5332 13.6657C27.3094 13.6787 27.0857 13.6376 26.8814 13.5459C26.6772 13.4542 26.4985 13.3147 26.3608 13.1394L26.3974 13.0759ZM56.3029 10.6712C56.1283 10.6194 55.9658 10.5338 55.8249 10.4192C55.6841 10.3046 55.5676 10.1634 55.4824 10.0038C55.3971 9.84415 55.3448 9.66932 55.3284 9.48947C55.312 9.30962 55.3319 9.12834 55.387 8.95619C55.4967 8.60956 55.7401 8.31983 56.0643 8.14993C56.3884 7.98003 56.7671 7.94368 57.1181 8.04877C57.2927 8.10053 57.4552 8.1862 57.5961 8.30079C57.737 8.41538 57.8534 8.5566 57.9387 8.71621C58.0239 8.87583 58.0763 9.05065 58.0926 9.2305C58.109 9.41036 58.0891 9.59164 58.0341 9.76379C57.9374 10.0307 57.7595 10.2614 57.5249 10.4239C57.2903 10.5864 57.0105 10.6728 56.7243 10.6712C56.5764 10.7184 56.4215 10.7399 56.2663 10.7347L56.3029 10.6712ZM29.5941 9.91805C29.4653 9.79152 29.3631 9.64097 29.2933 9.47511C29.2236 9.30924 29.1877 9.13133 29.1877 8.95165C29.1877 8.77197 29.2236 8.59406 29.2933 8.42819C29.3631 8.26233 29.4653 8.11178 29.5941 7.98525C29.8517 7.73035 30.2009 7.58718 30.565 7.58718C30.9291 7.58718 31.2783 7.73035 31.5359 7.98525C31.7909 8.24162 31.9339 8.58714 31.9339 8.94711C31.9339 9.30709 31.7909 9.65261 31.5359 9.90898C31.2768 10.1618 30.9286 10.305 30.565 10.3082C30.3835 10.3231 30.2009 10.3019 30.0279 10.2458C29.8548 10.1897 29.6949 10.0998 29.5574 9.98157L29.5941 9.91805ZM33.0197 6.91449C32.8267 6.60936 32.7627 6.24123 32.8416 5.88972C32.9204 5.53821 33.1357 5.23158 33.441 5.03614C33.593 4.93845 33.763 4.8715 33.9412 4.83915C34.1194 4.8068 34.3023 4.80968 34.4793 4.84763C34.6564 4.88558 34.8242 4.95786 34.9729 5.06029C35.1217 5.16272 35.2485 5.29329 35.3462 5.44448C35.4517 5.60172 35.5234 5.77874 35.557 5.96457C35.5907 6.1504 35.5854 6.3411 35.5416 6.52484C35.4978 6.70858 35.4164 6.88146 35.3025 7.03278C35.1885 7.18409 35.0444 7.31061 34.879 7.4045C34.6571 7.54329 34.3996 7.61575 34.1371 7.61321C33.9069 7.60941 33.6811 7.54947 33.4799 7.43869C33.2786 7.3279 33.1079 7.16968 32.983 6.97801L33.0197 6.91449ZM54.0863 6.51523C53.9502 6.39742 53.8388 6.25414 53.7587 6.09361C53.6785 5.93308 53.6311 5.75845 53.6192 5.57974C53.6073 5.40102 53.6311 5.22174 53.6892 5.05216C53.7474 4.88258 53.8388 4.72603 53.9581 4.5915C54.0769 4.45753 54.2212 4.34816 54.3828 4.26967C54.5444 4.19118 54.72 4.14513 54.8997 4.13416C55.0793 4.1232 55.2593 4.14754 55.4294 4.20578C55.5995 4.26403 55.7563 4.35503 55.8907 4.47354C56.027 4.58912 56.1387 4.73034 56.2195 4.88902C56.3002 5.04769 56.3484 5.22066 56.3611 5.3979C56.3739 5.57515 56.3511 5.75314 56.2939 5.92157C56.2367 6.09001 56.1464 6.24552 56.0281 6.37912C55.899 6.52563 55.74 6.64342 55.5616 6.72474C55.3832 6.80606 55.1895 6.84908 54.9931 6.85098C54.6372 6.89369 54.2785 6.7959 53.9948 6.57875L54.0863 6.51523ZM36.9216 4.68224C36.8421 4.5221 36.7953 4.34795 36.7841 4.16982C36.7728 3.9917 36.7973 3.81313 36.856 3.64441C36.9148 3.4757 37.0067 3.32017 37.1264 3.18681C37.2461 3.05346 37.3913 2.9449 37.5536 2.86741C37.8812 2.71558 38.2556 2.69604 38.5975 2.8129C38.9395 2.92976 39.2221 3.17387 39.3855 3.49353C39.5411 3.81775 39.5621 4.18954 39.4439 4.52893C39.3257 4.86832 39.0778 5.1482 38.7535 5.30836C38.5663 5.39294 38.3638 5.43923 38.1581 5.44448C37.9004 5.44606 37.6475 5.37531 37.4287 5.24042C37.2098 5.10553 37.034 4.912 36.9216 4.68224ZM50.4409 4.35557C50.1214 4.19066 49.8795 3.90874 49.7665 3.5698C49.6536 3.23086 49.6787 2.86166 49.8364 2.54074C49.9993 2.22079 50.2837 1.978 50.6272 1.8657C50.9707 1.7534 51.3451 1.78079 51.6683 1.94184C51.9912 2.10322 52.2363 2.38502 52.3496 2.72532C52.463 3.06561 52.4353 3.43656 52.2728 3.75668C52.1585 3.98165 51.983 4.17052 51.7661 4.30199C51.5493 4.43346 51.2997 4.5023 51.0454 4.50076C50.8325 4.4806 50.6264 4.41563 50.4409 4.3102V4.35557ZM41.08 2.72222C40.9595 2.38284 40.9796 2.01003 41.1358 1.68526C41.2919 1.36049 41.5716 1.11018 41.9135 0.989051C42.2573 0.869408 42.6349 0.889029 42.9642 1.04365C43.2935 1.19827 43.5479 1.4754 43.6721 1.8148C43.7331 1.9834 43.76 2.16227 43.7511 2.34117C43.7422 2.52007 43.6978 2.69548 43.6204 2.85733C43.543 3.01919 43.434 3.16431 43.2999 3.28438C43.1657 3.40445 43.009 3.49711 42.8386 3.55705C42.6882 3.60763 42.5302 3.63219 42.3714 3.62964C42.088 3.62885 41.8117 3.54122 41.5805 3.37877C41.3493 3.21631 41.1745 2.98698 41.08 2.72222ZM46.5756 2.72222C46.3993 2.68853 46.2314 2.62069 46.0815 2.52258C45.9317 2.42448 45.8029 2.29804 45.7025 2.15051C45.6021 2.00298 45.532 1.83727 45.4964 1.66288C45.4608 1.48849 45.4602 1.30884 45.4948 1.13424C45.5288 0.958345 45.5976 0.790832 45.6971 0.641302C45.7966 0.491772 45.9249 0.363165 46.0746 0.262851C46.2244 0.162536 46.3926 0.0924875 46.5698 0.0567192C46.7469 0.0209508 46.9294 0.0201655 47.1069 0.0544094C47.4645 0.126678 47.7788 0.336059 47.9812 0.636914C48.1837 0.93777 48.2579 1.30571 48.1877 1.66054C48.1246 1.96888 47.9563 2.24631 47.7111 2.44625C47.466 2.64619 47.1588 2.75645 46.8412 2.75852C46.7474 2.74349 46.6554 2.71917 46.5665 2.68592L46.5756 2.72222Z" fill="#B6E895"/>
</g>
<defs>
<clipPath id="clip0_468_806">
<rect width="58.0615" height="74" fill="white"/>
</clipPath>
</defs>
</svg>
