<svg width="50" height="53" viewBox="0 0 50 53" fill="none" xmlns="http://www.w3.org/2000/svg">
<path d="M34.3537 23.368C29.0531 28.2059 20.8284 28.1775 15.5621 23.2915C14.5801 23.9679 13.9375 25.0861 13.9375 26.3525V33.6248C19.7038 33.7449 22.9759 42.5042 19.7376 48.8116H30.6049C27.4542 42.6741 30.4486 34.3149 35.8706 33.6621V26.3526C35.8708 25.1328 35.275 24.0505 34.3537 23.368Z" fill="#356D10"/>
<path d="M29.4628 48.8116C22.6658 43.1141 22.0408 33.1013 28.0293 26.6458C23.678 27.6067 18.9847 26.467 15.5621 23.2915C14.5801 23.9679 13.9375 25.0861 13.9375 26.3525V33.6248C19.7038 33.7449 22.9759 42.5042 19.7376 48.8116H29.4628Z" fill="#356D10"/>
<path d="M48.5506 32.7206L38.7598 23.6051C37.8068 22.7175 36.5707 22.3045 35.3536 22.3558C35.0384 22.7101 34.4833 23.0473 34.1323 23.3677C35.0538 24.0503 35.6493 25.1326 35.6493 26.3522V33.719L35.8037 33.8628C35.9667 33.8481 36.1305 33.8377 36.2965 33.8377C39.4403 33.8377 42.3322 36.3432 43.3075 40.1334C45.0838 40.9811 47.2874 40.651 48.7202 39.1719C50.4908 37.3447 50.4147 34.456 48.5506 32.7206Z" fill="#356D10"/>
<path d="M44.1272 37.6271L35.6494 30.797V33.7192L35.8038 33.863C35.9668 33.8482 36.1306 33.8378 36.2966 33.8378C39.4404 33.8378 42.3323 36.3434 43.3076 40.1335C45.0839 40.9812 47.2875 40.6511 48.7203 39.1721C49.0747 38.8064 49.3537 38.3977 49.5606 37.9648C47.9102 38.9821 45.7158 38.907 44.1272 37.6271Z" fill="#356D10"/>
<path d="M14.0462 33.8378C14.0845 33.8378 14.122 33.8407 14.1602 33.8417C14.1597 33.8417 14.1591 33.8415 14.1587 33.8415V26.3522C14.1587 25.0859 14.8013 23.9677 15.7833 23.2912C15.7896 23.2969 15.7959 23.3025 15.8022 23.3082C15.4751 23.0057 14.9418 22.688 14.6462 22.3558C13.4291 22.3044 12.1931 22.7175 11.2402 23.6051L1.44926 32.7206C-0.414865 34.456 -0.490642 37.3447 1.27968 39.1719C2.82222 40.7639 5.25717 41.0248 7.09143 39.9184C8.11117 36.2403 10.9618 33.8378 14.0462 33.8378Z" fill="#356D10"/>
<path d="M14.1588 30.8638L5.87522 37.6055C4.2923 38.894 2.09663 38.979 0.440918 37.9682C1.63267 40.4574 4.75493 41.3284 7.09143 39.9189C8.11116 36.2407 10.9618 33.8382 14.0462 33.8382C14.0845 33.8382 14.122 33.8412 14.1602 33.8421C14.1597 33.8421 14.1591 33.8419 14.1587 33.8419V30.8638H14.1588Z" fill="#356D10"/>
<path d="M13.8248 52.9943C17.7938 52.9943 21.0114 48.6574 21.0114 43.3075C21.0114 37.9577 17.7938 33.6207 13.8248 33.6207C9.85573 33.6207 6.63818 37.9577 6.63818 43.3075C6.63818 48.6574 9.85573 52.9943 13.8248 52.9943Z" fill="#B6E895"/>
<path d="M13.825 52.9946C16.093 52.9946 17.9317 50.5163 17.9317 47.4593C17.9317 44.4022 16.093 41.924 13.825 41.924C11.5569 41.924 9.71826 44.4022 9.71826 47.4593C9.71826 50.5163 11.5569 52.9946 13.825 52.9946Z" fill="#356D10"/>
<path d="M36.5176 52.9943C40.4867 52.9943 43.7042 48.6574 43.7042 43.3075C43.7042 37.9577 40.4867 33.6207 36.5176 33.6207C32.5486 33.6207 29.3311 37.9577 29.3311 43.3075C29.3311 48.6574 32.5486 52.9943 36.5176 52.9943Z" fill="#B6E895"/>
<path d="M38.3496 35.131C39.3371 35.131 40.278 35.3997 41.1345 35.8854C39.8857 34.4727 38.2755 33.6213 36.5176 33.6213C32.5486 33.6213 29.3311 37.9583 29.3311 43.3079C29.3311 47.3266 31.1467 50.7735 33.7327 52.2401C28.6185 46.4547 31.6534 35.131 38.3496 35.131Z" fill="#B6E895"/>
<path d="M8.47012 44.8174C8.47012 37.931 13.6916 33.1916 18.4417 35.8853C17.1928 34.4726 15.5826 33.6212 13.8248 33.6212C9.85569 33.6212 6.63818 37.9581 6.63818 43.3078C6.63818 47.3264 8.45386 50.7734 11.0398 52.2399C9.46895 50.4631 8.47012 47.7976 8.47012 44.8174Z" fill="#B6E895"/>
<path d="M36.5178 52.9946C38.7859 52.9946 40.6245 50.5163 40.6245 47.4593C40.6245 44.4022 38.7859 41.924 36.5178 41.924C34.2498 41.924 32.4111 44.4022 32.4111 47.4593C32.4111 50.5163 34.2498 52.9946 36.5178 52.9946Z" fill="#356D10"/>
<path d="M15.0458 42.1724C12.392 41.0605 9.71826 43.7454 9.71826 47.4589C9.71826 50.5159 11.5568 52.994 13.8249 52.994C14.25 52.994 14.6602 52.9068 15.0458 52.7452C11.2139 51.139 11.216 43.7776 15.0458 42.1724Z" fill="#356D10"/>
<path d="M37.7387 42.1725C35.0832 41.0599 32.4111 43.7479 32.4111 47.459C32.4111 51.1507 35.0697 53.8636 37.7387 52.7454C33.9068 51.1392 33.9087 43.7777 37.7387 42.1725Z" fill="#356D10"/>
<path d="M18.2344 35.6631C21.2776 38.8553 21.8821 44.634 19.7372 48.8118H30.6045C28.5459 44.8015 29.0161 39.3144 31.7647 36.046C28.6264 29.4864 21.5719 29.2909 18.2344 35.6631Z" fill="#356D10"/>
<path d="M25.1741 31.0065C22.1321 30.8737 19.6519 32.9577 18.2354 35.6617C21.3565 38.9349 21.8258 44.744 19.7377 48.8113H29.463C24.1552 44.3622 22.509 37.1426 25.1741 31.0065Z" fill="#356D10"/>
<path d="M25.0001 0.00012207C17.398 0.00012207 11.2134 6.06279 11.2134 13.5149C11.2134 20.9669 17.3982 27.0296 25.0001 27.0296C32.6021 27.0296 38.7868 20.9669 38.7868 13.5149C38.7869 6.06279 32.6022 0.00012207 25.0001 0.00012207Z" fill="#356D10"/>
<path d="M13.426 13.5151C13.426 6.42799 19.0198 0.598144 26.1065 0.0438971C18.0732 -0.585392 11.2134 5.65132 11.2134 13.5151C11.2134 21.3647 18.0587 27.6165 26.1065 26.9862C19.0196 26.4321 13.426 20.6021 13.426 13.5151Z" fill="#356D10"/>
<path d="M20.6516 3.94394C19.6267 2.00435 17.5619 0.678101 15.1799 0.678101C11.778 0.678101 9.02002 3.38156 9.02002 6.71659C9.02002 9.93601 11.5902 12.5659 14.8286 12.7446C15.4834 9.09212 17.6402 5.94686 20.6516 3.94394Z" fill="#356D10"/>
<path d="M9.99591 3.45642C7.45532 7.33019 10.1247 12.4849 14.8284 12.7444C14.955 12.0385 15.1382 11.3519 15.3721 10.6885C11.7875 10.3165 9.25263 6.9823 9.99591 3.45642Z" fill="#356D10"/>
<path d="M29.3694 3.94394C30.3943 2.00435 32.4591 0.678101 34.8411 0.678101C38.243 0.678101 41.001 3.38156 41.001 6.71659C41.001 9.93601 38.4308 12.5659 35.1924 12.7446C34.5376 9.09212 32.3808 5.94686 29.3694 3.94394Z" fill="#356D10"/>
<path d="M40.0251 3.45642C42.5657 7.33019 39.8963 12.4849 35.1926 12.7444C35.066 12.0385 34.8828 11.3519 34.6489 10.6885C38.2335 10.3165 40.7684 6.9823 40.0251 3.45642Z" fill="#356D10"/>
<path d="M23.2311 17.2557C23.2311 16.1508 24.502 15.2169 26.2491 14.9096C25.8539 14.8401 25.4346 14.8026 24.9999 14.8026C22.6433 14.8026 20.7329 15.901 20.7329 17.2557C20.7329 18.6106 22.6433 19.7089 24.9999 19.7089C25.4346 19.7089 25.8539 19.6712 26.2491 19.6018C24.5021 19.2947 23.2311 18.3607 23.2311 17.2557Z" fill="#356D10"/>
<path d="M24.9993 19.9773C27.3865 19.9773 29.3218 17.6719 29.3218 14.828C29.3218 11.984 27.3865 9.67859 24.9993 9.67859C22.612 9.67859 20.6768 11.984 20.6768 14.828C20.6768 17.6719 22.612 19.9773 24.9993 19.9773Z" fill="#B6E895"/>
<path d="M17.06 11.9124C17.5934 11.9124 18.0258 11.4885 18.0258 10.9657C18.0258 10.4428 17.5934 10.0189 17.06 10.0189C16.5266 10.0189 16.0942 10.4428 16.0942 10.9657C16.0942 11.4885 16.5266 11.9124 17.06 11.9124Z" fill="#B6E895"/>
<path d="M32.9707 11.9124C33.5041 11.9124 33.9365 11.4885 33.9365 10.9657C33.9365 10.4428 33.5041 10.0189 32.9707 10.0189C32.4373 10.0189 32.0049 10.4428 32.0049 10.9657C32.0049 11.4885 32.4373 11.9124 32.9707 11.9124Z" fill="#B6E895"/>
<path d="M25.0049 13.4427C25.4375 13.4427 25.7882 13.0989 25.7882 12.6749C25.7882 12.2509 25.4375 11.9071 25.0049 11.9071C24.5723 11.9071 24.2217 12.2509 24.2217 12.6749C24.2217 13.0989 24.5723 13.4427 25.0049 13.4427Z" fill="#356D10"/>
</svg>
