<svg width="53" height="53" viewBox="0 0 53 53" fill="none" xmlns="http://www.w3.org/2000/svg">
<path d="M26.5 53C41.1355 53 53 41.1355 53 26.5C53 11.8645 41.1355 0 26.5 0C11.8645 0 0 11.8645 0 26.5C0 41.1355 11.8645 53 26.5 53Z" fill="#B6E895"/>
<path d="M26.4999 51.0373C40.0514 51.0373 51.037 40.0517 51.037 26.5003C51.037 12.9489 40.0514 1.96326 26.4999 1.96326C12.9485 1.96326 1.96289 12.9489 1.96289 26.5003C1.96289 40.0517 12.9485 51.0373 26.4999 51.0373Z" fill="#356D10"/>
<path d="M27.6431 27.1626H31.2403C31.5687 27.1509 31.8947 27.2209 32.1881 27.3661C32.4815 27.5114 32.7327 27.7272 32.9183 27.9934L34.9698 30.7782C35.1353 31.0056 35.3007 31.2423 35.4425 31.4512C35.6231 31.7178 35.7319 32.025 35.7587 32.3441C35.7856 32.6632 35.7296 32.9838 35.5959 33.2758C35.4623 33.5679 35.2554 33.822 34.9947 34.0142C34.7339 34.2065 34.4277 34.3306 34.1048 34.3752C33.7588 34.4232 33.4061 34.3763 33.0857 34.2395C32.7653 34.1026 32.4897 33.8813 32.2897 33.6001C31.6563 32.7646 31.0276 31.9199 30.3989 31.0752C30.3748 31.0387 30.342 31.0086 30.3032 30.9876C30.2645 30.9665 30.221 30.9552 30.1767 30.9545H25.7335C25.2944 30.9644 24.8656 30.8238 24.5206 30.557C24.1756 30.2903 23.9359 29.9139 23.8427 29.4925C23.8104 29.3493 23.7946 29.203 23.7954 29.0563V22.9251C23.804 22.4496 23.9944 21.9946 24.329 21.6506C24.6635 21.3066 25.1177 21.0989 25.6011 21.0686C26.0983 21.0354 26.5887 21.1961 26.9657 21.5159C27.3428 21.8358 27.5761 22.2888 27.6148 22.7766C27.662 23.4032 27.6148 24.039 27.6148 24.6703V27.0095C27.6329 27.0586 27.6425 27.1104 27.6431 27.1626Z" fill="#FCFCFC"/>
<path d="M29.7703 32.3423C30.0586 32.7414 30.3328 33.1266 30.6069 33.5165L31.3869 34.6165C31.4115 34.6423 31.4252 34.6763 31.4252 34.7116C31.4252 34.747 31.4115 34.781 31.3869 34.8068C30.6981 35.7247 29.7974 36.4691 28.7587 36.9789C26.0313 38.2413 23.4268 37.9953 21.0303 36.2131C20.2422 35.6368 19.5886 34.9018 19.1133 34.0573C18.638 33.2128 18.352 32.2784 18.2745 31.3165C18.1199 29.8446 18.4372 28.3621 19.1821 27.0757C19.9269 25.7894 21.0622 24.7635 22.4294 24.1411L22.5665 24.0901V27.144C22.5682 27.1861 22.5601 27.228 22.5429 27.2666C22.5258 27.3052 22.4999 27.3395 22.4672 27.3668C21.623 28.1092 21.1046 29.1439 21.0208 30.2537C20.922 31.4035 21.2881 32.5453 22.04 33.4321C22.7919 34.3189 23.8691 34.8794 25.0387 34.9924C25.8138 35.0817 26.5991 34.9657 27.3131 34.6563C28.0271 34.347 28.6437 33.8557 29.0991 33.2334C29.326 32.941 29.5387 32.6718 29.7703 32.3423Z" fill="#FCFCFC"/>
<path d="M28.8201 17.3557C28.821 17.974 28.6353 18.5787 28.2864 19.0934C27.9375 19.6081 27.4411 20.0098 26.8599 20.2477C26.2787 20.4856 25.6387 20.549 25.0207 20.4299C24.4028 20.3109 23.8347 20.0147 23.3881 19.5788C22.9415 19.1429 22.6365 18.5868 22.5116 17.9808C22.3866 17.3748 22.4474 16.746 22.6863 16.1739C22.9251 15.6018 23.3312 15.112 23.8534 14.7664C24.3755 14.4208 24.9903 14.2348 25.62 14.2321C26.0392 14.2303 26.4546 14.3097 26.8424 14.4658C27.2303 14.6219 27.583 14.8516 27.8803 15.1417C28.1776 15.4319 28.4136 15.7768 28.5749 16.1567C28.7361 16.5367 28.8195 16.9441 28.8201 17.3557Z" fill="#FCFCFC"/>
</svg>
